<svg data-v-0dd9719b="" version="1.0" xmlns="http://www.w3.org/2000/svg" xmlns:xlink="http://www.w3.org/1999/xlink" width="100%" height="100%" viewBox="0 0 340.000000 250.000000" preserveAspectRatio="xMidYMid meet" color-interpolation-filters="sRGB" style="margin: auto;"> <rect data-v-0dd9719b="" x="0" y="0" width="100%" height="100%" fill="#fff" fill-opacity="1" class="background"></rect> <rect data-v-0dd9719b="" x="0" y="0" width="100%" height="100%" fill="url(#watermark)" fill-opacity="1" class="watermarklayer"></rect> <g data-v-0dd9719b="" fill="#333" class="icon-text-wrapper icon-svg-group iconsvg" transform="translate(48.2449951171875,94.96395683288574)"><g class="iconsvg-imagesvg" transform="translate(0,0)"><g><rect fill="#333" fill-opacity="0" stroke-width="2" x="0" y="0" width="60" height="60.07208650380456" class="image-rect"></rect> <svg x="0" y="0" width="60" height="60.07208650380456" filtersec="colorsb607388082" class="image-svg-svg primary" style="overflow: visible;"><svg xmlns="http://www.w3.org/2000/svg" viewBox="0 -0.00001430726933904225 99.8800048828125 100.00004577636719"><g fill-rule="evenodd"><path d="M10.85 81.18L46.64 87V76.88l-40.3-2.39a49.59 49.59 0 0 0 4.51 6.69zM51.52 100v-8.74l-37.47-6.45A49.85 49.85 0 0 0 49.94 100h1.58zM1.57 62.7l63.7 1.11v10L3.15 67.68a48.89 48.89 0 0 1-1.58-5zM.49 57.48l56.82 3.27V50.54L0 52.53c.08 1.67.25 3.32.49 4.95zM0 47.19L44.45 49V38.39l-43.94 4C.27 44 .11 45.58 0 47.19zM1.62 37.09l32.83-1.35v-10l-30.66 5a49 49 0 0 0-2.17 6.35zM6.32 25.55l35.4-3.08V11.64l-30 6.12a49.44 49.44 0 0 0-5.41 7.79zM49.63 0v9.2L15.26 14A49.84 49.84 0 0 1 49.63 0z" fill="#2491eb"></path><path d="M90 80l-43.36 7V76.88l47.12-2.8A50.6 50.6 0 0 1 90 80zM51.52 100v-8.74l34.33-6.48A49.82 49.82 0 0 1 51.52 100zM96.25 68.86l-31 5v-10l33-1.08a49 49 0 0 1-2 6.13zM99.42 57.18l-42.11 3.57V50.54l42.57 1.71c-.07 1.66-.23 3.31-.46 4.93zM99.88 47.67L44.45 49V38.39l54.81 3.38a49.74 49.74 0 0 1 .62 5.9zM98.19 36.88l-63.74-1.14v-10l62 5.95a48.69 48.69 0 0 1 1.72 5.2zM93.78 26l-52.06-3.53V11.64l47.39 7.29a50.45 50.45 0 0 1 4.67 7zM49.63 0v9.2l35.18 5A49.82 49.82 0 0 0 49.94 0z" fill="#145593"></path></g></svg></svg> <!----></g></g> <g transform="translate(67,7.83479118347168)"><g data-gra="path-name" fill-rule="" class="tp-name iconsvg-namesvg" transform="translate(0,0)"><g transform="scale(1)"><g><path d="M20.23-19.22L28.84-19.19 24.48-22.64 20.23-19.22ZM32.44-13L16.24-12.92Q15.62-12.92 15.62-13.9L15.62-13.9 15.62-16.45 15.23-16.45Q14.8-16.49 14.8-17.64L14.8-17.64 14.8-21.13Q14.8-22.14 15.23-22.64L15.23-22.64 20.23-26.89Q20.52-27.11 20.75-27.27 20.99-27.43 21.38-27.4L21.38-27.4 27.25-27.43Q27.94-27.43 28.37-27L28.37-27 33.73-22.79Q34.27-22.36 34.27-20.99L34.27-20.99 34.27-17.53Q34.2-16.34 33.66-16.34L33.66-16.34 32.98-16.31 33.01-14Q33.01-13 32.44-13L32.44-13ZM20.84-3.96L28.22-3.96 28.22-6.48 20.84-6.48 20.84-3.96ZM32.87 1.84L32.87 1.84 16.09 1.84Q14.98 1.84 14.98-0.14L14.98-0.14 14.98-9.76Q14.98-11.63 16.16-11.63L16.16-11.63 32.76-11.7Q34.02-11.63 34.02-9.9L34.02-9.9 34.02 0.04Q34.02 1.84 32.87 1.84ZM7.31-6.05L8.53-6.05 8.53-19.94 7.31-19.94 7.31-6.05ZM12.46 1.84L3.35 1.87Q1.73 1.87 1.73-0.61L1.73-0.61 1.73-25.31Q1.73-27.25 3.24-27.25L3.24-27.25 12.31-27.32Q13.93-27.22 13.93-25.56L13.93-25.56 13.97-0.04Q13.97 1.84 12.46 1.84L12.46 1.84ZM55.55 1.87L55.55 1.87 48.31 1.84Q47.56 1.84 47.52 1.04L47.52 1.04 47.52-4.21Q47.59-4.93 48.35-4.93L48.35-4.93 50.51-4.93 50.51-18.11 45.9-18.11 45.14-15.88Q44.57-14.72 43.74-14.65L43.74-14.65 38.88-14.65Q37.87-14.65 37.76-15.62L37.76-15.62 37.76-18.25Q37.76-18.94 37.98-19.55L37.98-19.55 41-26.53Q41.36-27.4 42.37-27.4L42.37-27.4 46.98-27.4Q48.06-27.4 48.17-26.5L48.17-26.5 48.17-25.06 69.05-25.02Q69.59-25.02 69.91-24.77 70.24-24.52 70.24-24.01L70.24-24.01 70.24-22.57Q70.24-22.21 69.98-20.45 69.73-18.68 69.23-15.41L69.23-15.41Q68.9-14.83 68.22-14.83L68.22-14.83 62.57-14.83Q61.85-14.83 61.81-15.52L61.81-15.52 61.81-18.11 58.36-18.11 58.14-0.4Q58.07 1.84 55.55 1.87ZM69.16 1.69L69.16 1.69 63.94 1.69Q63.07 1.69 62.86 0.86L62.86 0.86 60.37-8.68Q60.12-9.32 60.12-10.22L60.12-10.22 60.12-12.64Q60.12-13.54 61.13-13.64L61.13-13.64 66.67-13.64Q67.07-13.61 67.39-13.39 67.72-13.18 67.82-12.78L67.82-12.78Q69.08-8.17 69.64-5.8 70.2-3.42 70.24-3.2L70.24-3.2 70.24 0.72Q70.24 1.66 69.16 1.69ZM44.46 1.69L44.46 1.69 39.06 1.69Q37.76 1.55 37.76 0.14L37.76 0.14 37.73-2.27Q37.73-3.28 38.09-4.25L38.09-4.25 40.46-12.49Q40.68-13.54 41.87-13.54L41.87-13.54 46.55-13.54Q47.84-13.46 47.84-12.24L47.84-12.24Q47.84-10.8 47.81-9.83 47.77-8.86 47.7-8.28L47.7-8.28 45.83 0.65Q45.61 1.69 44.46 1.69ZM87.77-21.67L87.77-20.3Q93.49-20.56 96.71-20.66 99.94-20.77 100.66-20.77L100.66-20.77 100.66-21.67 87.77-21.67ZM89.78-8.28L96.19-8.28 96.19-10.01 89.78-10.01 89.78-8.28ZM105.16 1.73L105.16 1.73 100.48 1.73Q99.97 1.73 99.61 1.3L99.61 1.3 98.24-0.76Q97.96-1.22 97.96-1.87L97.96-1.87 97.96-3.13 89.93-3.13 89.93-1.73Q89.93-1.01 89.68-0.61L89.68-0.61 88.16 1.3Q87.84 1.69 87.3 1.73L87.3 1.73 83.09 1.73Q82.62 1.73 82.51 1.12L82.51 1.12 82.44-0.68Q82.44-1.26 82.62-1.51L82.62-1.51 84.13-3.13 82.51-3.13Q81.83-3.13 81.83-4L81.83-4 81.83-7.24Q81.83-8.17 82.44-8.17L82.44-8.17 83.09-8.17 83.09-17.64 82.51-17.64Q82.08-17.68 82.08-18.61L82.08-18.61 82.08-25.42Q82.08-26.39 83.3-26.39L83.3-26.39 90.83-26.42 90.83-26.71Q90.83-27.29 91.55-27.29L91.55-27.29 96.3-27.25Q97.13-27.25 97.13-26.42L97.13-26.42 104.69-26.42Q106.13-26.39 106.13-25.34L106.13-25.34 106.13-18.68Q106.13-17.71 105.26-17.71L105.26-17.71 105.26-17.06Q105.26-16.24 104.69-16.2L104.69-16.2 89.75-15.7 89.75-14.83 104.72-14.83Q105.3-14.83 105.3-13.75L105.3-13.75 105.3-10.69Q105.3-9.94 104.8-9.86L104.8-9.86 102.6-9.86 102.6-8.14 105.48-8.14Q106.13-8.14 106.13-7.27L106.13-7.27 106.16-4Q106.16-3.13 105.55-3.13L105.55-3.13 103.57-3.13 105.26-1.58Q105.55-1.19 105.55-0.58L105.55-0.58 105.52 1.08Q105.41 1.73 105.16 1.73ZM80.21-10.12L80.21-10.12 76.86-10.12Q76.1-10.12 75.67-10.87L75.67-10.87 74.2-13.39Q74.05-13.54 74-14 73.94-14.47 73.93-15.07 73.91-15.66 73.91-16.31 73.91-16.96 73.87-17.53L73.87-17.53Q73.94-18.25 74.74-18.36L74.74-18.36 77.9-18.36Q78.7-18.32 79.16-17.78L79.16-17.78 80.93-14.8Q81.22-14.4 81.22-13.68L81.22-13.68 81.18-10.84Q81.18-10.15 80.21-10.12ZM80.42-18.97L80.42-18.97 76.93-18.97Q76.21-18.97 75.71-19.8L75.71-19.8 74.2-22.28Q74.02-22.43 73.96-22.86 73.91-23.29 73.89-23.89 73.87-24.48 73.87-25.15 73.87-25.81 73.84-26.39L73.84-26.39Q73.91-27.11 74.74-27.22L74.74-27.22 78.05-27.22Q78.91-27.14 79.38-26.64L79.38-26.64 81.18-23.69Q81.47-23.29 81.47-22.54L81.47-22.54 81.47-19.69Q81.47-19.04 80.42-18.97ZM79.24 1.66L79.24 1.66 74.92 1.66Q73.98 1.66 73.98 0.79L73.98 0.79 73.94-1.55Q73.98-1.84 74.32-3.64 74.66-5.44 75.38-8.82L75.38-8.82Q75.53-9.58 76.32-9.58L76.32-9.58 80.68-9.54Q81.18-9.54 81.32-8.64L81.32-8.64 81.32-7.02Q81.32-6.48 81.09-4.48 80.86-2.48 80.46 1.01L80.46 1.01Q80.17 1.66 79.24 1.66ZM118.22-20.05L133.31-20.05 133.31-20.84 118.22-20.84 118.22-20.05ZM118.22-23.29L133.27-23.29 133.27-24.08 118.22-24.08 118.22-23.29ZM139.54-17.03L111.89-16.99Q110.45-17.03 110.45-18.18L110.45-18.18 110.34-25.88Q110.27-27.36 111.71-27.36L111.71-27.36 139.64-27.32Q141.19-27.32 141.19-25.88L141.19-25.88 141.19-18.79Q141.19-17.03 139.54-17.03L139.54-17.03ZM140.94 2.02L140.94 2.02 137.45 2.02Q136.55 2.02 135.9 1.73L135.9 1.73 126.22-4.21 124.78-4.21 124.78-1.4 128.23-1.33Q128.84-1.26 128.88-0.86L128.88-0.86 128.92 1.01Q128.77 1.55 128.2 1.58L128.2 1.58Q125.17 1.76 123.5 1.87 121.82 1.98 121.43 1.98L121.43 1.98Q119.3 1.98 119.16 0.97L119.16 0.97 119.16-4.21 118.55-4.21Q117.22-4.21 117.22-4.9L117.22-4.9 117.22-7.13Q117.22-7.74 118.44-7.74L118.44-7.74 141.19-7.74Q142.2-7.74 142.27-7.02L142.27-7.02 142.27-4.9Q142.27-4.21 141.26-4.21L141.26-4.21 133.85-4.21 136.08-3.2Q136.08-3.56 137.56-3.56L137.56-3.56 140.54-3.56Q141.59-3.56 141.62-3.1L141.62-3.1 141.62-2.23Q141.62-1.8 141.14-1.66 140.65-1.51 140.15-1.37L140.15-1.37 141.37-0.61Q141.88-0.4 141.91 0.07L141.91 0.07 141.91 1.33Q141.91 1.98 140.94 2.02ZM140.29-8.42L140.29-8.42 119.45-8.46Q118.44-8.46 118.37-8.96L118.37-8.96 118.37-11.41Q118.37-11.88 119.38-11.88L119.38-11.88 140.22-11.88Q141.3-11.88 141.3-11.34L141.3-11.34 141.34-9Q141.34-8.42 140.29-8.42ZM115.67 1.94L115.67 1.94 110.77 1.91Q110.27 1.91 110.02 1.69 109.76 1.48 109.76 1.15L109.76 1.15 109.73-0.9 110.23-15.7Q110.41-16.42 111.56-16.42L111.56-16.42 140.76-16.45Q142.13-16.38 142.13-15.7L142.13-15.7 142.13-13.21Q142.13-12.56 140.94-12.56L140.94-12.56 117-12.49 116.64 1.15Q116.6 1.94 115.67 1.94ZM154.3-18.65L169.42-18.65 169.42-19.58 154.3-19.58 154.3-18.65ZM154.3-22.54L169.38-22.54 169.38-23.47 154.3-23.47 154.3-22.54ZM175.61-15.05L147.96-15.01Q146.56-15.05 146.56-16.42L146.56-16.42 146.45-25.56Q146.38-27.36 147.82-27.36L147.82-27.36 175.75-27.32Q177.26-27.32 177.26-25.56L177.26-25.56 177.26-17.17Q177.26-15.05 175.61-15.05L175.61-15.05ZM154.12 1.84L154.12 1.84 148.25 1.84Q147.2 1.76 147.2 1.15L147.2 1.15 147.17 0.61Q147.13 0.25 147.19 0 147.24-0.25 147.28-0.4L147.28-0.4 149.08-2.63 146.81-2.63Q145.76-2.63 145.76-3.35L145.76-3.35 145.76-7.38Q145.76-8.14 146.74-8.14L146.74-8.14 150.26-8.14 150.26-8.68 147.49-8.68Q146.41-8.68 146.34-9.5L146.34-9.5 146.34-13.03Q146.34-13.72 147.42-13.9L147.42-13.9 159.3-14.4Q159.48-14.44 160.47-14.45 161.46-14.47 163.3-14.47L163.3-14.47Q164.41-14.47 164.41-13.57L164.41-13.57 164.41-10.66Q164.41-9.9 163.51-9.86L163.51-9.86 158.87-9.43 158.87-8.1 165.2-8.1 165.2-13.9Q165.28-14.72 166.5-14.72L166.5-14.72 172.33-14.72Q173.77-14.72 173.77-13.9L173.77-13.9 173.88-8.1 177.12-8.1Q178.2-8.1 178.2-7.42L178.2-7.42 178.24-3.35Q178.24-2.63 177.26-2.63L177.26-2.63 173.84-2.63 173.81 1.01Q173.81 1.8 172.51 1.8L172.51 1.8 166.25 1.8Q165.13 1.8 165.13 1.01L165.13 1.01 165.13-2.63 157.86-2.63 155.74 1.12Q155.23 1.84 154.12 1.84Z" transform="translate(-1.7300000190734863, 27.43000030517578)"></path></g> <!----> <!----> <!----> <!----> <!----> <!----> <!----></g></g> <g data-gra="path-slogan" fill-rule="" class="tp-slogan iconsvg-slogansvg" fill="#333" transform="translate(13.745002746582031,35.45000076293945)"><!----> <!----> <g transform="scale(1, 1)"><g transform="scale(1)"><path d="M2.06-5.06L6.56-5.06L6.56-8.58L7.73-8.58L7.73 0L6.56 0L6.56-3.98L2.06-3.98L2.06 0L0.89 0L0.89-8.58L2.06-8.58L2.06-5.06ZM15.19 0L14.34-2.48L10.88-2.48L9.98 0L8.81 0L12.05-8.58L13.36-8.58L16.45 0L15.19 0ZM12.61-7.31L11.25-3.52L13.92-3.52L12.66-7.31L12.61-7.31ZM21.61-3.70L18.80-3.70L18.80 0L17.63 0L17.63-8.58L21.61-8.58Q24.47-8.58 24.47-6.28L24.47-6.28Q24.47-4.88 23.25-4.22L23.25-4.22Q24.28-3.94 24.28-2.58L24.28-2.58L24.38-1.03Q24.33-0.38 24.80-0.19L24.80-0.19L24.80 0L23.34 0Q23.20-0.61 23.16-2.16L23.16-2.16Q23.20-3.70 21.61-3.70L21.61-3.70ZM21.70-7.64L18.80-7.64L18.80-4.69L21.52-4.69Q23.25-4.69 23.25-6.19L23.25-6.19Q23.25-7.64 21.70-7.64L21.70-7.64ZM29.34-7.64L27.28-7.64L27.28-4.97L29.34-4.97Q31.17-4.92 31.13-6.38L31.13-6.38Q31.13-7.64 29.34-7.64L29.34-7.64ZM29.81 0L26.11 0L26.11-8.58L29.91-8.58Q32.20-8.48 32.30-6.42L32.30-6.42Q32.30-5.16 31.17-4.64L31.17-4.64Q32.77-4.08 32.77-2.53L32.77-2.53Q32.63-0.09 29.81 0L29.81 0ZM29.53-3.98L27.28-3.98L27.28-0.98L29.77-0.98Q31.55-1.03 31.59-2.53L31.59-2.53Q31.59-3.98 29.53-3.98L29.53-3.98ZM34.27-8.58L35.44-8.58L35.44 0L34.27 0L34.27-8.58ZM38.81-8.58L43.13-1.64L43.13-8.58L44.25-8.58L44.25 0L42.94 0L38.58-6.94L38.53-6.94L38.53 0L37.41 0L37.41-8.58L38.81-8.58ZM57.61-8.58L57.61 0L56.48 0L56.48-5.06Q56.48-5.77 56.48-7.22L56.48-7.22L54.05 0L52.88 0L50.48-7.22L50.44-7.22Q50.44-6.70 50.48-5.67L50.48-5.67Q50.48-5.16 50.48-5.06L50.48-5.06L50.48 0L49.31 0L49.31-8.58L51-8.58L53.48-1.31L55.92-8.58L57.61-8.58ZM66.09-4.27L66.09-4.27Q65.91-7.64 63.09-7.83L63.09-7.83Q60.23-7.69 60.09-4.27L60.09-4.27Q60.23-0.94 63.09-0.80L63.09-0.80Q65.91-0.98 66.09-4.27ZM67.27-4.27L67.27-4.27Q66.98 0 63.09 0.14L63.09 0.14Q59.16 0 58.88-4.27L58.88-4.27Q59.11-8.72 63.09-8.81L63.09-8.81Q66.98-8.67 67.27-4.27ZM72.75-3.70L69.94-3.70L69.94 0L68.77 0L68.77-8.58L72.75-8.58Q75.61-8.58 75.61-6.28L75.61-6.28Q75.61-4.88 74.39-4.22L74.39-4.22Q75.42-3.94 75.42-2.58L75.42-2.58L75.52-1.03Q75.47-0.38 75.94-0.19L75.94-0.19L75.94 0L74.48 0Q74.34-0.61 74.30-2.16L74.30-2.16Q74.34-3.70 72.75-3.70L72.75-3.70ZM72.84-7.64L69.94-7.64L69.94-4.69L72.66-4.69Q74.39-4.69 74.39-6.19L74.39-6.19Q74.39-7.64 72.84-7.64L72.84-7.64ZM78.66-8.58L82.97-1.64L82.97-8.58L84.09-8.58L84.09 0L82.78 0L78.42-6.94L78.38-6.94L78.38 0L77.25 0L77.25-8.58L78.66-8.58ZM86.06-8.58L87.23-8.58L87.23 0L86.06 0L86.06-8.58ZM90.61-8.58L94.92-1.64L94.92-8.58L96.05-8.58L96.05 0L94.73 0L90.38-6.94L90.33-6.94L90.33 0L89.20 0L89.20-8.58L90.61-8.58ZM104.25-3.61L101.63-3.61L101.63-4.59L105.38-4.59L105.38 0L104.63 0L104.34-1.08Q103.36 0.09 101.53 0.14L101.53 0.14Q99.80 0.14 98.86-0.75L98.86-0.75Q97.45-2.06 97.50-4.36L97.50-4.36Q97.83-8.63 101.58-8.81L101.58-8.81Q104.77-8.63 105.23-6L105.23-6L104.11-6Q103.64-7.78 101.53-7.83L101.53-7.83Q98.86-7.64 98.72-4.31L98.72-4.31Q98.72-0.75 101.58-0.75L101.58-0.75Q102.61-0.75 103.36-1.31L103.36-1.31Q104.30-2.06 104.25-3.61L104.25-3.61ZM114.61-3.70L111.80-3.70L111.80 0L110.63 0L110.63-8.58L114.61-8.58Q117.47-8.58 117.47-6.28L117.47-6.28Q117.47-4.88 116.25-4.22L116.25-4.22Q117.28-3.94 117.28-2.58L117.28-2.58L117.38-1.03Q117.33-0.38 117.80-0.19L117.80-0.19L117.80 0L116.34 0Q116.20-0.61 116.16-2.16L116.16-2.16Q116.20-3.70 114.61-3.70L114.61-3.70ZM114.70-7.64L111.80-7.64L111.80-4.69L114.52-4.69Q116.25-4.69 116.25-6.19L116.25-6.19Q116.25-7.64 114.70-7.64L114.70-7.64ZM119.30-8.58L120.47-8.58L120.47 0L119.30 0L119.30-8.58ZM128.72-6.09L128.72-6.09L127.64-6.09Q127.55-7.73 125.48-7.83L125.48-7.83Q123.56-7.78 123.56-6.33L123.56-6.33Q123.56-5.39 124.59-5.25L124.59-5.25L127.03-4.69Q128.95-4.22 128.95-2.34L128.95-2.34Q128.91 0.05 125.58 0.14L125.58 0.14Q123.75 0.14 123-0.61L123-0.61Q122.06-1.31 122.11-2.77L122.11-2.77L123.23-2.77Q123.28-0.80 125.58-0.75L125.58-0.75Q127.83-0.80 127.88-2.20L127.88-2.20Q128.06-3.38 126-3.75L126-3.75L124.22-4.13Q122.39-4.64 122.39-6.19L122.39-6.19Q122.53-8.72 125.39-8.81L125.39-8.81Q128.63-8.81 128.72-6.09ZM130.59-8.58L131.77-8.58L131.77 0L130.59 0L130.59-8.58ZM135.14-8.58L139.45-1.64L139.45-8.58L140.58-8.58L140.58 0L139.27 0L134.91-6.94L134.86-6.94L134.86 0L133.73 0L133.73-8.58L135.14-8.58ZM148.78-3.61L146.16-3.61L146.16-4.59L149.91-4.59L149.91 0L149.16 0L148.88-1.08Q147.89 0.09 146.06 0.14L146.06 0.14Q144.33 0.14 143.39-0.75L143.39-0.75Q141.98-2.06 142.03-4.36L142.03-4.36Q142.36-8.63 146.11-8.81L146.11-8.81Q149.30-8.63 149.77-6L149.77-6L148.64-6Q148.17-7.78 146.06-7.83L146.06-7.83Q143.39-7.64 143.25-4.31L143.25-4.31Q143.25-0.75 146.11-0.75L146.11-0.75Q147.14-0.75 147.89-1.31L147.89-1.31Q148.83-2.06 148.78-3.61L148.78-3.61Z" transform="translate(-0.890625, 8.8125)"></path></g></g></g></g></g><defs v-gra="od"></defs></svg>